<svg style="position: absolute; width: 0; height: 0; overflow: hidden;" version="1.1" xmlns="http://www.w3.org/2000/svg" xmlns:xlink="http://www.w3.org/1999/xlink">
<defs>
<symbol id="icon-sign-out"viewBox="0 0 25 28">
<title>sign-out</title>
<path d="M10 22.5c0 0.438 0.203 1.5-0.5 1.5h-5c-2.484 0-4.5-2.016-4.5-4.5v-11c0-2.484 2.016-4.5 4.5-4.5h5c0.266 0 0.5 0.234 0.5 0.5 0 0.438 0.203 1.5-0.5 1.5h-5c-1.375 0-2.5 1.125-2.5 2.5v11c0 1.375 1.125 2.5 2.5 2.5h4.5c0.391 0 1-0.078 1 0.5zM24.5 14c0 0.266-0.109 0.516-0.297 0.703l-8.5 8.5c-0.187 0.187-0.438 0.297-0.703 0.297-0.547 0-1-0.453-1-1v-4.5h-7c-0.547 0-1-0.453-1-1v-6c0-0.547 0.453-1 1-1h7v-4.5c0-0.547 0.453-1 1-1 0.266 0 0.516 0.109 0.703 0.297l8.5 8.5c0.187 0.187 0.297 0.438 0.297 0.703z"></path>
</symbol>
<symbol id="icon-logout" viewBox="0 0 54.81 45.253">
<title>Logout</title>
<g id="logout" transform="translate(-0.001 -0.001)">
    <g id="Share" transform="translate(0.001 0.001)">
      <g id="Group_46" data-name="Group 46">
        <path id="Path_19" data-name="Path 19" d="M47.959,36.77A3.171,3.171,0,0,1,44.534,39.6H10.278A3.171,3.171,0,0,1,6.852,36.77V8.486a3.171,3.171,0,0,1,3.426-2.828H20.555L31.972,0H6.852C3.067,0,0,2.533,0,5.658V39.6c0,3.125,3.066,5.657,6.851,5.657H47.959c3.785,0,6.851-2.531,6.851-5.657V16.264l-6.851,4.242ZM37.628,5.545c-.034.286-.051.238-.058-.017-1.689-.011-22.993,1.386-23.88,23.014.253,1.083,4.594-14.28,23.986-17.456.007.229.007,5.886.007,5.886L54.811,8.486,37.683,0c.055-.028-.13,4.5-.113,5.527C37.7,5.531,37.741,5.536,37.628,5.545ZM13.748,27.476c-.051.492-.055.778-.055.778C13.7,27.979,13.741,27.744,13.748,27.476Z" transform="translate(-0.001 -0.001)" fill="#ffffff"/>
      </g>
    </g>
  </g>
  </symbol>

</defs>
</svg>
