<svg xmlns="http://www.w3.org/2000/svg" width="54.81" height="45.253" viewBox="0 0 54.81 45.253">
  <g id="logout" transform="translate(-0.001 -0.001)">
    <g id="Share" transform="translate(0.001 0.001)">
      <g id="Group_46" data-name="Group 46">
        <path id="Path_19" data-name="Path 19" d="M47.959,36.77A3.171,3.171,0,0,1,44.534,39.6H10.278A3.171,3.171,0,0,1,6.852,36.77V8.486a3.171,3.171,0,0,1,3.426-2.828H20.555L31.972,0H6.852C3.067,0,0,2.533,0,5.658V39.6c0,3.125,3.066,5.657,6.851,5.657H47.959c3.785,0,6.851-2.531,6.851-5.657V16.264l-6.851,4.242ZM37.628,5.545c-.034.286-.051.238-.058-.017-1.689-.011-22.993,1.386-23.88,23.014.253,1.083,4.594-14.28,23.986-17.456.007.229.007,5.886.007,5.886L54.811,8.486,37.683,0c.055-.028-.13,4.5-.113,5.527C37.7,5.531,37.741,5.536,37.628,5.545ZM13.748,27.476c-.051.492-.055.778-.055.778C13.7,27.979,13.741,27.744,13.748,27.476Z" transform="translate(-0.001 -0.001)" fill="#040404"/>
      </g>
    </g>
  </g>
</svg>
